#define close1_width 11
#define close1_height 11
static unsigned char close1_bits[] = {
   0x83, 0x05, 0xc7, 0x05, 0xee, 0x04, 0x7c, 0x04, 0x38, 0x04, 0x7c, 0x04,
   0xee, 0x04, 0xc7, 0x05, 0x83, 0x05, 0x00, 0x04, 0xff, 0x07 };
