#define close2_width 11
#define close2_height 11
static unsigned char close2_bits[] = {
   0x01, 0x01, 0x82, 0x04, 0x44, 0x04, 0x28, 0x04, 0x10, 0x04, 0x28, 0x04,
   0x44, 0x04, 0x82, 0x04, 0x01, 0x05, 0x00, 0x04, 0xfe, 0x07 };
